G04 #@! TF.GenerationSoftware,KiCad,Pcbnew,(5.0.1-3-g963ef8bb5)*
G04 #@! TF.CreationDate,2018-11-27T12:20:19-08:00*
G04 #@! TF.ProjectId,Example,4578616D706C652E6B696361645F7063,0.0.1*
G04 #@! TF.SameCoordinates,Original*
G04 #@! TF.FileFunction,Copper,L1,Top,Signal*
G04 #@! TF.FilePolarity,Positive*
%FSLAX46Y46*%
G04 Gerber Fmt 4.6, Leading zero omitted, Abs format (unit mm)*
G04 Created by KiCad (PCBNEW (5.0.1-3-g963ef8bb5)) date Tuesday, November 27, 2018 at 12:20:19 PM*
%MOMM*%
%LPD*%
G01*
G04 APERTURE LIST*
G04 #@! TA.AperFunction,ComponentPad*
%ADD10R,1.800000X1.800000*%
G04 #@! TD*
G04 #@! TA.AperFunction,ComponentPad*
%ADD11C,1.800000*%
G04 #@! TD*
G04 #@! TA.AperFunction,ComponentPad*
%ADD12C,10.160000*%
G04 #@! TD*
G04 #@! TA.AperFunction,ComponentPad*
%ADD13O,1.600000X1.600000*%
G04 #@! TD*
G04 #@! TA.AperFunction,ComponentPad*
%ADD14C,1.600000*%
G04 #@! TD*
G04 #@! TA.AperFunction,ComponentPad*
%ADD15R,1.600000X1.600000*%
G04 #@! TD*
G04 #@! TA.AperFunction,Conductor*
%ADD16C,0.250000*%
G04 #@! TD*
G04 APERTURE END LIST*
D10*
G04 #@! TO.P,D_LED1,1*
G04 #@! TO.N,Net-(D_LED1-Pad1)*
X130000000Y-100000000D03*
D11*
G04 #@! TO.P,D_LED1,2*
G04 #@! TO.N,Net-(D_LED1-Pad2)*
X130000000Y-102540000D03*
G04 #@! TD*
D12*
G04 #@! TO.P,J1,1*
G04 #@! TO.N,VCC*
X130010000Y-125000000D03*
G04 #@! TO.P,J1,3*
G04 #@! TO.N,GND*
X159980000Y-125000000D03*
G04 #@! TO.P,J1,2*
G04 #@! TO.N,Net-(J1-Pad2)*
X145000000Y-125000000D03*
G04 #@! TD*
D13*
G04 #@! TO.P,R_INPUT1,2*
G04 #@! TO.N,/Input*
X145000000Y-109920000D03*
D14*
G04 #@! TO.P,R_INPUT1,1*
G04 #@! TO.N,Net-(J1-Pad2)*
X145000000Y-112460000D03*
G04 #@! TD*
G04 #@! TO.P,R_LED1,1*
G04 #@! TO.N,Net-(D_LED1-Pad2)*
X130000000Y-110000000D03*
D13*
G04 #@! TO.P,R_LED1,2*
G04 #@! TO.N,VCC*
X130000000Y-112540000D03*
G04 #@! TD*
D15*
G04 #@! TO.P,U1,1*
G04 #@! TO.N,VCC*
X145000000Y-105000000D03*
D13*
G04 #@! TO.P,U1,5*
G04 #@! TO.N,Net-(U1-Pad5)*
X152620000Y-97380000D03*
G04 #@! TO.P,U1,2*
G04 #@! TO.N,Net-(U1-Pad2)*
X147540000Y-105000000D03*
G04 #@! TO.P,U1,6*
G04 #@! TO.N,/Input*
X150080000Y-97380000D03*
G04 #@! TO.P,U1,3*
G04 #@! TO.N,Net-(U1-Pad3)*
X150080000Y-105000000D03*
G04 #@! TO.P,U1,7*
G04 #@! TO.N,Net-(D_LED1-Pad1)*
X147540000Y-97380000D03*
G04 #@! TO.P,U1,4*
G04 #@! TO.N,Net-(U1-Pad4)*
X152620000Y-105000000D03*
G04 #@! TO.P,U1,8*
G04 #@! TO.N,GND*
X145000000Y-97380000D03*
G04 #@! TD*
D16*
G04 #@! TO.N,Net-(D_LED1-Pad1)*
X145160000Y-95000000D02*
X147540000Y-97380000D01*
X135000000Y-95000000D02*
X145160000Y-95000000D01*
X130000000Y-100000000D02*
X135000000Y-95000000D01*
G04 #@! TO.N,Net-(D_LED1-Pad2)*
X130000000Y-110000000D02*
X130000000Y-102540000D01*
G04 #@! TO.N,VCC*
X130010000Y-112550000D02*
X130000000Y-112540000D01*
X130010000Y-125000000D02*
X130010000Y-112550000D01*
X130000000Y-112540000D02*
X132460000Y-112540000D01*
X140000000Y-105000000D02*
X145000000Y-105000000D01*
X132460000Y-112540000D02*
X140000000Y-105000000D01*
G04 #@! TO.N,Net-(J1-Pad2)*
X145000000Y-125000000D02*
X145000000Y-112460000D01*
G04 #@! TO.N,/Input*
X145000000Y-109920000D02*
X154920000Y-109920000D01*
X154920000Y-109920000D02*
X155000000Y-109840000D01*
X155000000Y-109840000D02*
X155000000Y-95000000D01*
X152460000Y-95000000D02*
X150080000Y-97380000D01*
X155000000Y-95000000D02*
X152460000Y-95000000D01*
G04 #@! TD*
M02*
