G04 #@! TF.GenerationSoftware,KiCad,Pcbnew,(5.0.1-3-g963ef8bb5)*
G04 #@! TF.CreationDate,2018-11-29T08:41:42-08:00*
G04 #@! TF.ProjectId,Example,4578616D706C652E6B696361645F7063,0.0.1*
G04 #@! TF.SameCoordinates,Original*
G04 #@! TF.FileFunction,Copper,L1,Top,Signal*
G04 #@! TF.FilePolarity,Positive*
%FSLAX46Y46*%
G04 Gerber Fmt 4.6, Leading zero omitted, Abs format (unit mm)*
G04 Created by KiCad (PCBNEW (5.0.1-3-g963ef8bb5)) date Thursday, November 29, 2018 at 08:41:42 AM*
%MOMM*%
%LPD*%
G01*
G04 APERTURE LIST*
G04 #@! TA.AperFunction,ComponentPad*
%ADD10R,1.800000X1.800000*%
G04 #@! TD*
G04 #@! TA.AperFunction,ComponentPad*
%ADD11C,1.800000*%
G04 #@! TD*
G04 #@! TA.AperFunction,ComponentPad*
%ADD12C,10.160000*%
G04 #@! TD*
G04 #@! TA.AperFunction,ComponentPad*
%ADD13O,1.600000X1.600000*%
G04 #@! TD*
G04 #@! TA.AperFunction,ComponentPad*
%ADD14C,1.600000*%
G04 #@! TD*
G04 #@! TA.AperFunction,ComponentPad*
%ADD15R,1.600000X1.600000*%
G04 #@! TD*
G04 #@! TA.AperFunction,Conductor*
%ADD16C,0.250000*%
G04 #@! TD*
G04 #@! TA.AperFunction,Conductor*
%ADD17C,0.254000*%
G04 #@! TD*
G04 APERTURE END LIST*
D10*
G04 #@! TO.P,D_LED1,1*
G04 #@! TO.N,Net-(D_LED1-Pad1)*
X130000000Y-100000000D03*
D11*
G04 #@! TO.P,D_LED1,2*
G04 #@! TO.N,Net-(D_LED1-Pad2)*
X130000000Y-102540000D03*
G04 #@! TD*
D12*
G04 #@! TO.P,J1,1*
G04 #@! TO.N,VCC*
X130010000Y-125000000D03*
G04 #@! TO.P,J1,3*
G04 #@! TO.N,GND*
X159980000Y-125000000D03*
G04 #@! TO.P,J1,2*
G04 #@! TO.N,Net-(J1-Pad2)*
X145000000Y-125000000D03*
G04 #@! TD*
D13*
G04 #@! TO.P,R_INPUT1,2*
G04 #@! TO.N,/Input*
X145000000Y-109920000D03*
D14*
G04 #@! TO.P,R_INPUT1,1*
G04 #@! TO.N,Net-(J1-Pad2)*
X145000000Y-112460000D03*
G04 #@! TD*
G04 #@! TO.P,R_LED1,1*
G04 #@! TO.N,Net-(D_LED1-Pad2)*
X130000000Y-110000000D03*
D13*
G04 #@! TO.P,R_LED1,2*
G04 #@! TO.N,VCC*
X130000000Y-112540000D03*
G04 #@! TD*
D15*
G04 #@! TO.P,U1,1*
G04 #@! TO.N,VCC*
X145000000Y-105000000D03*
D13*
G04 #@! TO.P,U1,5*
G04 #@! TO.N,Net-(U1-Pad5)*
X152620000Y-97380000D03*
G04 #@! TO.P,U1,2*
G04 #@! TO.N,Net-(U1-Pad2)*
X147540000Y-105000000D03*
G04 #@! TO.P,U1,6*
G04 #@! TO.N,/Input*
X150080000Y-97380000D03*
G04 #@! TO.P,U1,3*
G04 #@! TO.N,Net-(U1-Pad3)*
X150080000Y-105000000D03*
G04 #@! TO.P,U1,7*
G04 #@! TO.N,Net-(D_LED1-Pad1)*
X147540000Y-97380000D03*
G04 #@! TO.P,U1,4*
G04 #@! TO.N,Net-(U1-Pad4)*
X152620000Y-105000000D03*
G04 #@! TO.P,U1,8*
G04 #@! TO.N,GND*
X145000000Y-97380000D03*
G04 #@! TD*
D16*
G04 #@! TO.N,Net-(D_LED1-Pad1)*
X145160000Y-95000000D02*
X147540000Y-97380000D01*
X135000000Y-95000000D02*
X145160000Y-95000000D01*
X130000000Y-100000000D02*
X135000000Y-95000000D01*
G04 #@! TO.N,Net-(D_LED1-Pad2)*
X130000000Y-110000000D02*
X130000000Y-102540000D01*
G04 #@! TO.N,VCC*
X130010000Y-112550000D02*
X130000000Y-112540000D01*
X130010000Y-125000000D02*
X130010000Y-112550000D01*
X130000000Y-112540000D02*
X132460000Y-112540000D01*
X140000000Y-105000000D02*
X145000000Y-105000000D01*
X132460000Y-112540000D02*
X140000000Y-105000000D01*
G04 #@! TO.N,Net-(J1-Pad2)*
X145000000Y-125000000D02*
X145000000Y-112460000D01*
G04 #@! TO.N,/Input*
X145000000Y-109920000D02*
X154920000Y-109920000D01*
X154920000Y-109920000D02*
X155000000Y-109840000D01*
X155000000Y-109840000D02*
X155000000Y-95000000D01*
X152460000Y-95000000D02*
X150080000Y-97380000D01*
X155000000Y-95000000D02*
X152460000Y-95000000D01*
G04 #@! TD*
D17*
G04 #@! TO.N,GND*
G36*
X159290001Y-114930069D02*
X159276091Y-115000000D01*
X159331195Y-115277028D01*
X159488119Y-115511881D01*
X159722972Y-115668805D01*
X159930074Y-115710000D01*
X159930075Y-115710000D01*
X160000000Y-115723909D01*
X160069926Y-115710000D01*
X169290000Y-115710000D01*
X169290001Y-134290000D01*
X120710000Y-134290000D01*
X120710000Y-123863216D01*
X124295000Y-123863216D01*
X124295000Y-126136784D01*
X125165057Y-128237287D01*
X126772713Y-129844943D01*
X128873216Y-130715000D01*
X131146784Y-130715000D01*
X133247287Y-129844943D01*
X134854943Y-128237287D01*
X135725000Y-126136784D01*
X135725000Y-123863216D01*
X134854943Y-121762713D01*
X133247287Y-120155057D01*
X131146784Y-119285000D01*
X130770000Y-119285000D01*
X130770000Y-113751362D01*
X131034577Y-113574577D01*
X131218043Y-113300000D01*
X132385153Y-113300000D01*
X132460000Y-113314888D01*
X132534847Y-113300000D01*
X132534852Y-113300000D01*
X132756537Y-113255904D01*
X133007929Y-113087929D01*
X133050331Y-113024470D01*
X140314802Y-105760000D01*
X143552560Y-105760000D01*
X143552560Y-105800000D01*
X143601843Y-106047765D01*
X143742191Y-106257809D01*
X143952235Y-106398157D01*
X144200000Y-106447440D01*
X145800000Y-106447440D01*
X146047765Y-106398157D01*
X146257809Y-106257809D01*
X146398157Y-106047765D01*
X146424785Y-105913894D01*
X146505423Y-106034577D01*
X146980091Y-106351740D01*
X147398667Y-106435000D01*
X147681333Y-106435000D01*
X148099909Y-106351740D01*
X148574577Y-106034577D01*
X148810000Y-105682242D01*
X149045423Y-106034577D01*
X149520091Y-106351740D01*
X149938667Y-106435000D01*
X150221333Y-106435000D01*
X150639909Y-106351740D01*
X151114577Y-106034577D01*
X151350000Y-105682242D01*
X151585423Y-106034577D01*
X152060091Y-106351740D01*
X152478667Y-106435000D01*
X152761333Y-106435000D01*
X153179909Y-106351740D01*
X153654577Y-106034577D01*
X153971740Y-105559909D01*
X154083113Y-105000000D01*
X153971740Y-104440091D01*
X153654577Y-103965423D01*
X153179909Y-103648260D01*
X152761333Y-103565000D01*
X152478667Y-103565000D01*
X152060091Y-103648260D01*
X151585423Y-103965423D01*
X151350000Y-104317758D01*
X151114577Y-103965423D01*
X150639909Y-103648260D01*
X150221333Y-103565000D01*
X149938667Y-103565000D01*
X149520091Y-103648260D01*
X149045423Y-103965423D01*
X148810000Y-104317758D01*
X148574577Y-103965423D01*
X148099909Y-103648260D01*
X147681333Y-103565000D01*
X147398667Y-103565000D01*
X146980091Y-103648260D01*
X146505423Y-103965423D01*
X146424785Y-104086106D01*
X146398157Y-103952235D01*
X146257809Y-103742191D01*
X146047765Y-103601843D01*
X145800000Y-103552560D01*
X144200000Y-103552560D01*
X143952235Y-103601843D01*
X143742191Y-103742191D01*
X143601843Y-103952235D01*
X143552560Y-104200000D01*
X143552560Y-104240000D01*
X140074846Y-104240000D01*
X139999999Y-104225112D01*
X139925152Y-104240000D01*
X139925148Y-104240000D01*
X139703463Y-104284096D01*
X139452071Y-104452071D01*
X139409671Y-104515527D01*
X132145199Y-111780000D01*
X131218043Y-111780000D01*
X131034577Y-111505423D01*
X130682832Y-111270394D01*
X130812862Y-111216534D01*
X131216534Y-110812862D01*
X131435000Y-110285439D01*
X131435000Y-109714561D01*
X131216534Y-109187138D01*
X130812862Y-108783466D01*
X130760000Y-108761570D01*
X130760000Y-103886669D01*
X130869507Y-103841310D01*
X131301310Y-103409507D01*
X131535000Y-102845330D01*
X131535000Y-102234670D01*
X131301310Y-101670493D01*
X131132092Y-101501275D01*
X131147765Y-101498157D01*
X131357809Y-101357809D01*
X131498157Y-101147765D01*
X131547440Y-100900000D01*
X131547440Y-99527361D01*
X133345760Y-97729041D01*
X143608086Y-97729041D01*
X143847611Y-98235134D01*
X144262577Y-98611041D01*
X144650961Y-98771904D01*
X144873000Y-98649915D01*
X144873000Y-97507000D01*
X143729371Y-97507000D01*
X143608086Y-97729041D01*
X133345760Y-97729041D01*
X134043842Y-97030959D01*
X143608086Y-97030959D01*
X143729371Y-97253000D01*
X144873000Y-97253000D01*
X144873000Y-96110085D01*
X144650961Y-95988096D01*
X144262577Y-96148959D01*
X143847611Y-96524866D01*
X143608086Y-97030959D01*
X134043842Y-97030959D01*
X135314802Y-95760000D01*
X144845199Y-95760000D01*
X145171071Y-96085872D01*
X145127000Y-96110085D01*
X145127000Y-97253000D01*
X145147000Y-97253000D01*
X145147000Y-97507000D01*
X145127000Y-97507000D01*
X145127000Y-98649915D01*
X145349039Y-98771904D01*
X145737423Y-98611041D01*
X146152389Y-98235134D01*
X146249053Y-98030892D01*
X146505423Y-98414577D01*
X146980091Y-98731740D01*
X147398667Y-98815000D01*
X147681333Y-98815000D01*
X148099909Y-98731740D01*
X148574577Y-98414577D01*
X148810000Y-98062242D01*
X149045423Y-98414577D01*
X149520091Y-98731740D01*
X149938667Y-98815000D01*
X150221333Y-98815000D01*
X150639909Y-98731740D01*
X151114577Y-98414577D01*
X151350000Y-98062242D01*
X151585423Y-98414577D01*
X152060091Y-98731740D01*
X152478667Y-98815000D01*
X152761333Y-98815000D01*
X153179909Y-98731740D01*
X153654577Y-98414577D01*
X153971740Y-97939909D01*
X154083113Y-97380000D01*
X153971740Y-96820091D01*
X153654577Y-96345423D01*
X153179909Y-96028260D01*
X152761333Y-95945000D01*
X152589802Y-95945000D01*
X152774802Y-95760000D01*
X154240001Y-95760000D01*
X154240000Y-109160000D01*
X146218043Y-109160000D01*
X146034577Y-108885423D01*
X145559909Y-108568260D01*
X145141333Y-108485000D01*
X144858667Y-108485000D01*
X144440091Y-108568260D01*
X143965423Y-108885423D01*
X143648260Y-109360091D01*
X143536887Y-109920000D01*
X143648260Y-110479909D01*
X143965423Y-110954577D01*
X144317168Y-111189606D01*
X144187138Y-111243466D01*
X143783466Y-111647138D01*
X143565000Y-112174561D01*
X143565000Y-112745439D01*
X143783466Y-113272862D01*
X144187138Y-113676534D01*
X144240001Y-113698431D01*
X144240000Y-119285000D01*
X143863216Y-119285000D01*
X141762713Y-120155057D01*
X140155057Y-121762713D01*
X139285000Y-123863216D01*
X139285000Y-126136784D01*
X140155057Y-128237287D01*
X141762713Y-129844943D01*
X143863216Y-130715000D01*
X146136784Y-130715000D01*
X148237287Y-129844943D01*
X148985402Y-129096828D01*
X156062777Y-129096828D01*
X156658556Y-129787641D01*
X158743537Y-130694265D01*
X161016758Y-130733989D01*
X163132142Y-129900765D01*
X163301444Y-129787641D01*
X163897223Y-129096828D01*
X159980000Y-125179605D01*
X156062777Y-129096828D01*
X148985402Y-129096828D01*
X149844943Y-128237287D01*
X150715000Y-126136784D01*
X150715000Y-126036758D01*
X154246011Y-126036758D01*
X155079235Y-128152142D01*
X155192359Y-128321444D01*
X155883172Y-128917223D01*
X159800395Y-125000000D01*
X160159605Y-125000000D01*
X164076828Y-128917223D01*
X164767641Y-128321444D01*
X165674265Y-126236463D01*
X165713989Y-123963242D01*
X164880765Y-121847858D01*
X164767641Y-121678556D01*
X164076828Y-121082777D01*
X160159605Y-125000000D01*
X159800395Y-125000000D01*
X155883172Y-121082777D01*
X155192359Y-121678556D01*
X154285735Y-123763537D01*
X154246011Y-126036758D01*
X150715000Y-126036758D01*
X150715000Y-123863216D01*
X149844943Y-121762713D01*
X148985402Y-120903172D01*
X156062777Y-120903172D01*
X159980000Y-124820395D01*
X163897223Y-120903172D01*
X163301444Y-120212359D01*
X161216463Y-119305735D01*
X158943242Y-119266011D01*
X156827858Y-120099235D01*
X156658556Y-120212359D01*
X156062777Y-120903172D01*
X148985402Y-120903172D01*
X148237287Y-120155057D01*
X146136784Y-119285000D01*
X145760000Y-119285000D01*
X145760000Y-113698430D01*
X145812862Y-113676534D01*
X146216534Y-113272862D01*
X146435000Y-112745439D01*
X146435000Y-112174561D01*
X146216534Y-111647138D01*
X145812862Y-111243466D01*
X145682832Y-111189606D01*
X146034577Y-110954577D01*
X146218043Y-110680000D01*
X154845153Y-110680000D01*
X154920000Y-110694888D01*
X154994847Y-110680000D01*
X154994852Y-110680000D01*
X155216537Y-110635904D01*
X155467929Y-110467929D01*
X155499973Y-110419972D01*
X155547929Y-110387929D01*
X155715904Y-110136537D01*
X155760000Y-109914852D01*
X155760000Y-109914848D01*
X155774888Y-109840001D01*
X155760000Y-109765154D01*
X155760000Y-95074852D01*
X155774889Y-95000000D01*
X155715904Y-94703463D01*
X155547929Y-94452071D01*
X155296537Y-94284096D01*
X155074852Y-94240000D01*
X155000000Y-94225111D01*
X154925148Y-94240000D01*
X152534846Y-94240000D01*
X152459999Y-94225112D01*
X152385152Y-94240000D01*
X152385148Y-94240000D01*
X152163463Y-94284096D01*
X151912071Y-94452071D01*
X151869671Y-94515527D01*
X150403886Y-95981312D01*
X150221333Y-95945000D01*
X149938667Y-95945000D01*
X149520091Y-96028260D01*
X149045423Y-96345423D01*
X148810000Y-96697758D01*
X148574577Y-96345423D01*
X148099909Y-96028260D01*
X147681333Y-95945000D01*
X147398667Y-95945000D01*
X147216114Y-95981312D01*
X145750331Y-94515530D01*
X145707929Y-94452071D01*
X145456537Y-94284096D01*
X145234852Y-94240000D01*
X145234847Y-94240000D01*
X145160000Y-94225112D01*
X145085153Y-94240000D01*
X135074848Y-94240000D01*
X135000000Y-94225112D01*
X134925152Y-94240000D01*
X134925148Y-94240000D01*
X134751605Y-94274520D01*
X134703462Y-94284096D01*
X134516418Y-94409076D01*
X134452071Y-94452071D01*
X134409671Y-94515527D01*
X130472639Y-98452560D01*
X129100000Y-98452560D01*
X128852235Y-98501843D01*
X128642191Y-98642191D01*
X128501843Y-98852235D01*
X128452560Y-99100000D01*
X128452560Y-100900000D01*
X128501843Y-101147765D01*
X128642191Y-101357809D01*
X128852235Y-101498157D01*
X128867908Y-101501275D01*
X128698690Y-101670493D01*
X128465000Y-102234670D01*
X128465000Y-102845330D01*
X128698690Y-103409507D01*
X129130493Y-103841310D01*
X129240001Y-103886670D01*
X129240000Y-108761570D01*
X129187138Y-108783466D01*
X128783466Y-109187138D01*
X128565000Y-109714561D01*
X128565000Y-110285439D01*
X128783466Y-110812862D01*
X129187138Y-111216534D01*
X129317168Y-111270394D01*
X128965423Y-111505423D01*
X128648260Y-111980091D01*
X128536887Y-112540000D01*
X128648260Y-113099909D01*
X128965423Y-113574577D01*
X129250001Y-113764726D01*
X129250000Y-119285000D01*
X128873216Y-119285000D01*
X126772713Y-120155057D01*
X125165057Y-121762713D01*
X124295000Y-123863216D01*
X120710000Y-123863216D01*
X120710000Y-90710000D01*
X159290000Y-90710000D01*
X159290001Y-114930069D01*
X159290001Y-114930069D01*
G37*
X159290001Y-114930069D02*
X159276091Y-115000000D01*
X159331195Y-115277028D01*
X159488119Y-115511881D01*
X159722972Y-115668805D01*
X159930074Y-115710000D01*
X159930075Y-115710000D01*
X160000000Y-115723909D01*
X160069926Y-115710000D01*
X169290000Y-115710000D01*
X169290001Y-134290000D01*
X120710000Y-134290000D01*
X120710000Y-123863216D01*
X124295000Y-123863216D01*
X124295000Y-126136784D01*
X125165057Y-128237287D01*
X126772713Y-129844943D01*
X128873216Y-130715000D01*
X131146784Y-130715000D01*
X133247287Y-129844943D01*
X134854943Y-128237287D01*
X135725000Y-126136784D01*
X135725000Y-123863216D01*
X134854943Y-121762713D01*
X133247287Y-120155057D01*
X131146784Y-119285000D01*
X130770000Y-119285000D01*
X130770000Y-113751362D01*
X131034577Y-113574577D01*
X131218043Y-113300000D01*
X132385153Y-113300000D01*
X132460000Y-113314888D01*
X132534847Y-113300000D01*
X132534852Y-113300000D01*
X132756537Y-113255904D01*
X133007929Y-113087929D01*
X133050331Y-113024470D01*
X140314802Y-105760000D01*
X143552560Y-105760000D01*
X143552560Y-105800000D01*
X143601843Y-106047765D01*
X143742191Y-106257809D01*
X143952235Y-106398157D01*
X144200000Y-106447440D01*
X145800000Y-106447440D01*
X146047765Y-106398157D01*
X146257809Y-106257809D01*
X146398157Y-106047765D01*
X146424785Y-105913894D01*
X146505423Y-106034577D01*
X146980091Y-106351740D01*
X147398667Y-106435000D01*
X147681333Y-106435000D01*
X148099909Y-106351740D01*
X148574577Y-106034577D01*
X148810000Y-105682242D01*
X149045423Y-106034577D01*
X149520091Y-106351740D01*
X149938667Y-106435000D01*
X150221333Y-106435000D01*
X150639909Y-106351740D01*
X151114577Y-106034577D01*
X151350000Y-105682242D01*
X151585423Y-106034577D01*
X152060091Y-106351740D01*
X152478667Y-106435000D01*
X152761333Y-106435000D01*
X153179909Y-106351740D01*
X153654577Y-106034577D01*
X153971740Y-105559909D01*
X154083113Y-105000000D01*
X153971740Y-104440091D01*
X153654577Y-103965423D01*
X153179909Y-103648260D01*
X152761333Y-103565000D01*
X152478667Y-103565000D01*
X152060091Y-103648260D01*
X151585423Y-103965423D01*
X151350000Y-104317758D01*
X151114577Y-103965423D01*
X150639909Y-103648260D01*
X150221333Y-103565000D01*
X149938667Y-103565000D01*
X149520091Y-103648260D01*
X149045423Y-103965423D01*
X148810000Y-104317758D01*
X148574577Y-103965423D01*
X148099909Y-103648260D01*
X147681333Y-103565000D01*
X147398667Y-103565000D01*
X146980091Y-103648260D01*
X146505423Y-103965423D01*
X146424785Y-104086106D01*
X146398157Y-103952235D01*
X146257809Y-103742191D01*
X146047765Y-103601843D01*
X145800000Y-103552560D01*
X144200000Y-103552560D01*
X143952235Y-103601843D01*
X143742191Y-103742191D01*
X143601843Y-103952235D01*
X143552560Y-104200000D01*
X143552560Y-104240000D01*
X140074846Y-104240000D01*
X139999999Y-104225112D01*
X139925152Y-104240000D01*
X139925148Y-104240000D01*
X139703463Y-104284096D01*
X139452071Y-104452071D01*
X139409671Y-104515527D01*
X132145199Y-111780000D01*
X131218043Y-111780000D01*
X131034577Y-111505423D01*
X130682832Y-111270394D01*
X130812862Y-111216534D01*
X131216534Y-110812862D01*
X131435000Y-110285439D01*
X131435000Y-109714561D01*
X131216534Y-109187138D01*
X130812862Y-108783466D01*
X130760000Y-108761570D01*
X130760000Y-103886669D01*
X130869507Y-103841310D01*
X131301310Y-103409507D01*
X131535000Y-102845330D01*
X131535000Y-102234670D01*
X131301310Y-101670493D01*
X131132092Y-101501275D01*
X131147765Y-101498157D01*
X131357809Y-101357809D01*
X131498157Y-101147765D01*
X131547440Y-100900000D01*
X131547440Y-99527361D01*
X133345760Y-97729041D01*
X143608086Y-97729041D01*
X143847611Y-98235134D01*
X144262577Y-98611041D01*
X144650961Y-98771904D01*
X144873000Y-98649915D01*
X144873000Y-97507000D01*
X143729371Y-97507000D01*
X143608086Y-97729041D01*
X133345760Y-97729041D01*
X134043842Y-97030959D01*
X143608086Y-97030959D01*
X143729371Y-97253000D01*
X144873000Y-97253000D01*
X144873000Y-96110085D01*
X144650961Y-95988096D01*
X144262577Y-96148959D01*
X143847611Y-96524866D01*
X143608086Y-97030959D01*
X134043842Y-97030959D01*
X135314802Y-95760000D01*
X144845199Y-95760000D01*
X145171071Y-96085872D01*
X145127000Y-96110085D01*
X145127000Y-97253000D01*
X145147000Y-97253000D01*
X145147000Y-97507000D01*
X145127000Y-97507000D01*
X145127000Y-98649915D01*
X145349039Y-98771904D01*
X145737423Y-98611041D01*
X146152389Y-98235134D01*
X146249053Y-98030892D01*
X146505423Y-98414577D01*
X146980091Y-98731740D01*
X147398667Y-98815000D01*
X147681333Y-98815000D01*
X148099909Y-98731740D01*
X148574577Y-98414577D01*
X148810000Y-98062242D01*
X149045423Y-98414577D01*
X149520091Y-98731740D01*
X149938667Y-98815000D01*
X150221333Y-98815000D01*
X150639909Y-98731740D01*
X151114577Y-98414577D01*
X151350000Y-98062242D01*
X151585423Y-98414577D01*
X152060091Y-98731740D01*
X152478667Y-98815000D01*
X152761333Y-98815000D01*
X153179909Y-98731740D01*
X153654577Y-98414577D01*
X153971740Y-97939909D01*
X154083113Y-97380000D01*
X153971740Y-96820091D01*
X153654577Y-96345423D01*
X153179909Y-96028260D01*
X152761333Y-95945000D01*
X152589802Y-95945000D01*
X152774802Y-95760000D01*
X154240001Y-95760000D01*
X154240000Y-109160000D01*
X146218043Y-109160000D01*
X146034577Y-108885423D01*
X145559909Y-108568260D01*
X145141333Y-108485000D01*
X144858667Y-108485000D01*
X144440091Y-108568260D01*
X143965423Y-108885423D01*
X143648260Y-109360091D01*
X143536887Y-109920000D01*
X143648260Y-110479909D01*
X143965423Y-110954577D01*
X144317168Y-111189606D01*
X144187138Y-111243466D01*
X143783466Y-111647138D01*
X143565000Y-112174561D01*
X143565000Y-112745439D01*
X143783466Y-113272862D01*
X144187138Y-113676534D01*
X144240001Y-113698431D01*
X144240000Y-119285000D01*
X143863216Y-119285000D01*
X141762713Y-120155057D01*
X140155057Y-121762713D01*
X139285000Y-123863216D01*
X139285000Y-126136784D01*
X140155057Y-128237287D01*
X141762713Y-129844943D01*
X143863216Y-130715000D01*
X146136784Y-130715000D01*
X148237287Y-129844943D01*
X148985402Y-129096828D01*
X156062777Y-129096828D01*
X156658556Y-129787641D01*
X158743537Y-130694265D01*
X161016758Y-130733989D01*
X163132142Y-129900765D01*
X163301444Y-129787641D01*
X163897223Y-129096828D01*
X159980000Y-125179605D01*
X156062777Y-129096828D01*
X148985402Y-129096828D01*
X149844943Y-128237287D01*
X150715000Y-126136784D01*
X150715000Y-126036758D01*
X154246011Y-126036758D01*
X155079235Y-128152142D01*
X155192359Y-128321444D01*
X155883172Y-128917223D01*
X159800395Y-125000000D01*
X160159605Y-125000000D01*
X164076828Y-128917223D01*
X164767641Y-128321444D01*
X165674265Y-126236463D01*
X165713989Y-123963242D01*
X164880765Y-121847858D01*
X164767641Y-121678556D01*
X164076828Y-121082777D01*
X160159605Y-125000000D01*
X159800395Y-125000000D01*
X155883172Y-121082777D01*
X155192359Y-121678556D01*
X154285735Y-123763537D01*
X154246011Y-126036758D01*
X150715000Y-126036758D01*
X150715000Y-123863216D01*
X149844943Y-121762713D01*
X148985402Y-120903172D01*
X156062777Y-120903172D01*
X159980000Y-124820395D01*
X163897223Y-120903172D01*
X163301444Y-120212359D01*
X161216463Y-119305735D01*
X158943242Y-119266011D01*
X156827858Y-120099235D01*
X156658556Y-120212359D01*
X156062777Y-120903172D01*
X148985402Y-120903172D01*
X148237287Y-120155057D01*
X146136784Y-119285000D01*
X145760000Y-119285000D01*
X145760000Y-113698430D01*
X145812862Y-113676534D01*
X146216534Y-113272862D01*
X146435000Y-112745439D01*
X146435000Y-112174561D01*
X146216534Y-111647138D01*
X145812862Y-111243466D01*
X145682832Y-111189606D01*
X146034577Y-110954577D01*
X146218043Y-110680000D01*
X154845153Y-110680000D01*
X154920000Y-110694888D01*
X154994847Y-110680000D01*
X154994852Y-110680000D01*
X155216537Y-110635904D01*
X155467929Y-110467929D01*
X155499973Y-110419972D01*
X155547929Y-110387929D01*
X155715904Y-110136537D01*
X155760000Y-109914852D01*
X155760000Y-109914848D01*
X155774888Y-109840001D01*
X155760000Y-109765154D01*
X155760000Y-95074852D01*
X155774889Y-95000000D01*
X155715904Y-94703463D01*
X155547929Y-94452071D01*
X155296537Y-94284096D01*
X155074852Y-94240000D01*
X155000000Y-94225111D01*
X154925148Y-94240000D01*
X152534846Y-94240000D01*
X152459999Y-94225112D01*
X152385152Y-94240000D01*
X152385148Y-94240000D01*
X152163463Y-94284096D01*
X151912071Y-94452071D01*
X151869671Y-94515527D01*
X150403886Y-95981312D01*
X150221333Y-95945000D01*
X149938667Y-95945000D01*
X149520091Y-96028260D01*
X149045423Y-96345423D01*
X148810000Y-96697758D01*
X148574577Y-96345423D01*
X148099909Y-96028260D01*
X147681333Y-95945000D01*
X147398667Y-95945000D01*
X147216114Y-95981312D01*
X145750331Y-94515530D01*
X145707929Y-94452071D01*
X145456537Y-94284096D01*
X145234852Y-94240000D01*
X145234847Y-94240000D01*
X145160000Y-94225112D01*
X145085153Y-94240000D01*
X135074848Y-94240000D01*
X135000000Y-94225112D01*
X134925152Y-94240000D01*
X134925148Y-94240000D01*
X134751605Y-94274520D01*
X134703462Y-94284096D01*
X134516418Y-94409076D01*
X134452071Y-94452071D01*
X134409671Y-94515527D01*
X130472639Y-98452560D01*
X129100000Y-98452560D01*
X128852235Y-98501843D01*
X128642191Y-98642191D01*
X128501843Y-98852235D01*
X128452560Y-99100000D01*
X128452560Y-100900000D01*
X128501843Y-101147765D01*
X128642191Y-101357809D01*
X128852235Y-101498157D01*
X128867908Y-101501275D01*
X128698690Y-101670493D01*
X128465000Y-102234670D01*
X128465000Y-102845330D01*
X128698690Y-103409507D01*
X129130493Y-103841310D01*
X129240001Y-103886670D01*
X129240000Y-108761570D01*
X129187138Y-108783466D01*
X128783466Y-109187138D01*
X128565000Y-109714561D01*
X128565000Y-110285439D01*
X128783466Y-110812862D01*
X129187138Y-111216534D01*
X129317168Y-111270394D01*
X128965423Y-111505423D01*
X128648260Y-111980091D01*
X128536887Y-112540000D01*
X128648260Y-113099909D01*
X128965423Y-113574577D01*
X129250001Y-113764726D01*
X129250000Y-119285000D01*
X128873216Y-119285000D01*
X126772713Y-120155057D01*
X125165057Y-121762713D01*
X124295000Y-123863216D01*
X120710000Y-123863216D01*
X120710000Y-90710000D01*
X159290000Y-90710000D01*
X159290001Y-114930069D01*
G04 #@! TD*
M02*
